<svg width="52" height="18" viewBox="0 0 52 18" fill="none" xmlns="http://www.w3.org/2000/svg">
<path d="M51.3536 4.35355C51.5488 4.15829 51.5488 3.84171 51.3536 3.64645L48.1716 0.464466C47.9763 0.269204 47.6597 0.269204 47.4645 0.464466C47.2692 0.659728 47.2692 0.976311 47.4645 1.17157L50.2929 4L47.4645 6.82843C47.2692 7.02369 47.2692 7.34027 47.4645 7.53553C47.6597 7.7308 47.9763 7.7308 48.1716 7.53553L51.3536 4.35355ZM1 4.5H51V3.5H1V4.5Z" fill="white"/>
<path d="M0.646446 14.3536C0.451183 14.1583 0.451183 13.8417 0.646446 13.6464L3.82843 10.4645C4.02369 10.2692 4.34027 10.2692 4.53553 10.4645C4.7308 10.6597 4.7308 10.9763 4.53553 11.1716L1.70711 14L4.53553 16.8284C4.7308 17.0237 4.7308 17.3403 4.53553 17.5355C4.34027 17.7308 4.02369 17.7308 3.82843 17.5355L0.646446 14.3536ZM51 14.5H1V13.5H51V14.5Z" fill="white"/>
</svg>
